<?xml version="1.0" encoding="UTF-8"?>
<svg width="164px" height="43px" viewBox="0 0 164 43" version="1.1" xmlns="http://www.w3.org/2000/svg" xmlns:xlink="http://www.w3.org/1999/xlink">
    <!-- Generator: Sketch 40.3 (33839) - http://www.bohemiancoding.com/sketch -->
    <title>Untitled 3</title>
    <desc>Created with Sketch.</desc>
    <defs></defs>
    <g id="Page-1" stroke="none" stroke-width="1" fill="none" fill-rule="evenodd">
        <path d="M23.12,19.74 L23.12,19.26 C26.36,17.58 27.92,14.4 27.92,10.92 C27.92,3.42 20.84,0 14.66,0 L0.2,0 L0.2,42 L15.92,42 C23.84,42 30.02,37.8 30.02,29.88 C30.02,24.42 27.02,20.88 23.12,19.74 L23.12,19.74 Z M7.88,7.08 L13.64,7.08 C18.14,7.08 20.06,8.94 20.06,11.88 C20.06,14.16 18.98,16.62 13.64,16.62 L7.88,16.62 L7.88,7.08 Z M14.12,34.92 L7.88,34.92 L7.88,23.64 L14.72,23.64 C20.36,23.64 21.98,26.64 21.98,29.34 C21.98,32.52 19.76,34.92 14.12,34.92 L14.12,34.92 Z M63.866667,0 L53.306667,0 L39.146667,42 L47.786667,42 L50.726667,32.82 L66.446667,32.82 L69.386667,42 L78.026667,42 L63.866667,0 Z M53.126667,25.38 L57.866667,10.8 L59.306667,10.8 L64.046667,25.38 L53.126667,25.38 Z M113.253334,0 L82.533334,0 L82.533334,7.44 L93.873334,7.44 L93.873334,42 L101.913334,42 L101.913334,7.44 L113.253334,7.44 L113.253334,0 Z M159.760001,0 L151.420001,0 L151.420001,23.4 C151.420001,30.24 148.660001,34.38 142.900001,34.38 C137.140001,34.38 134.260001,30.24 134.260001,23.4 L134.260001,0 L125.920001,0 L125.920001,24 C125.920001,36.9 133.660001,42.3 142.900001,42.3 C152.140001,42.3 159.760001,36.9 159.760001,24 L159.760001,0 Z" id="BATU" fill="#000000"></path>
    </g>
</svg>